<?xml version="1.0" standalone="no"?>
<!DOCTYPE svg PUBLIC "-//W3C//DTD SVG 20010904//EN"
 "http://www.w3.org/TR/2001/REC-SVG-20010904/DTD/svg10.dtd">
<svg version="1.0" xmlns="http://www.w3.org/2000/svg"
 width="3840.000000pt" height="2160.000000pt" viewBox="0 0 3840.000000 2160.000000"
 preserveAspectRatio="xMidYMid meet">

<g transform="translate(0.000000,2160.000000) scale(0.100000,-0.100000)"
fill="#000000" stroke="none">
<path d="M2480 13468 l-45 -11 98 -18 c166 -30 250 -87 277 -191 20 -73 -24
-158 -103 -201 -36 -19 -57 -22 -152 -22 -131 1 -224 24 -645 159 -462 148
-593 179 -750 178 -124 -1 -222 -27 -353 -94 -228 -117 -357 -325 -357 -577 0
-151 47 -274 142 -369 80 -81 218 -142 146 -64 -85 90 -82 246 7 350 58 66
112 87 230 87 108 -1 128 -6 830 -195 281 -75 517 -132 633 -150 l72 -12 0
-347 0 -347 -165 -134 c-126 -102 -162 -137 -152 -145 7 -5 82 -66 165 -134
l152 -125 -2 -485 -3 -486 -85 -43 c-205 -102 -500 -127 -716 -61 -91 28 -246
108 -331 171 -77 57 -173 147 -173 163 0 5 189 105 420 220 l420 210 0 742 c0
409 -3 743 -6 743 -4 0 -238 -104 -521 -231 -283 -127 -516 -230 -518 -228 -7
8 66 152 119 233 76 117 178 221 302 307 83 58 101 75 83 77 -36 6 -157 -38
-299 -110 -451 -226 -787 -667 -865 -1137 -24 -141 -17 -430 14 -578 146 -703
734 -1187 1441 -1186 159 0 244 14 395 64 113 38 296 125 385 184 192 127 355
336 451 576 67 165 100 312 106 469 3 74 3 133 0 130 -3 -3 -26 -46 -51 -95
-105 -211 -271 -411 -450 -542 -32 -24 -62 -43 -67 -43 -5 0 -9 200 -9 465 l0
464 163 133 c89 73 163 138 163 143 0 6 -73 70 -163 144 l-163 134 2 341 3
341 70 8 c145 15 271 70 373 163 77 69 115 127 146 222 34 106 39 135 38 232
-1 94 -23 181 -65 253 -58 99 -214 203 -362 242 -79 20 -218 27 -275 13z
m-1080 -2233 l0 -715 -110 -55 c-60 -30 -114 -55 -119 -55 -6 0 -28 26 -49 58
-97 142 -196 389 -227 566 -19 113 -19 300 1 433 16 108 58 271 75 288 9 9
406 192 422 194 4 1 7 -321 7 -714z"/>
<path d="M28947 13471 c-20 -4 -39 -10 -42 -13 -3 -2 32 -10 77 -17 118 -18
179 -44 227 -96 48 -52 61 -81 61 -136 0 -81 -58 -149 -154 -179 -62 -20 -201
-6 -351 34 -71 19 -258 76 -415 126 -323 103 -515 155 -610 165 -36 4 -76 8
-89 10 -45 7 -186 -16 -268 -44 -325 -112 -506 -383 -471 -706 16 -152 97
-284 217 -356 86 -52 100 -50 56 7 -60 80 -70 171 -27 267 45 102 122 154 240
164 86 7 150 -6 507 -102 439 -118 850 -221 963 -241 l102 -17 0 -346 0 -346
-165 -134 c-91 -74 -165 -135 -165 -136 0 -1 74 -62 165 -136 l165 -134 -3
-485 -2 -485 -85 -42 c-210 -103 -500 -129 -716 -62 -156 48 -318 144 -441
263 l-77 73 424 214 425 214 3 744 c2 705 1 743 -15 738 -10 -2 -244 -107
-521 -232 -277 -125 -506 -225 -508 -222 -10 9 100 210 155 284 77 103 156
179 277 265 l99 70 -48 -6 c-64 -8 -263 -90 -365 -151 -311 -186 -561 -469
-692 -785 -158 -381 -136 -879 55 -1261 234 -465 666 -758 1195 -809 293 -29
615 60 898 247 264 175 462 490 537 858 19 94 32 305 19 305 -5 0 -21 -26 -35
-57 -66 -149 -233 -373 -360 -484 -79 -68 -159 -129 -170 -129 -5 0 -9 210 -8
468 l0 467 165 133 c90 73 162 137 159 142 -3 5 -77 68 -165 140 l-160 131 0
343 0 343 73 6 c143 12 272 70 386 174 166 150 221 459 120 670 -53 111 -217
227 -378 268 -75 19 -210 27 -264 16z m-1097 -2239 l0 -718 -111 -54 -111 -55
-28 33 c-74 89 -182 326 -226 500 -47 182 -47 434 0 642 41 183 28 169 266
276 113 51 206 93 208 93 1 1 2 -322 2 -717z"/>
<path d="M24082 13053 l-393 -278 37 -8 c20 -4 49 -16 65 -27 35 -25 85 -127
99 -199 6 -34 10 -501 10 -1282 l0 -1227 -151 -133 c-134 -117 -149 -134 -135
-147 13 -13 24 -6 102 62 l87 76 166 -159 c91 -87 189 -179 216 -204 l51 -45
317 279 c220 194 315 284 311 294 -4 8 -10 15 -15 15 -4 0 -41 -29 -81 -65
-40 -36 -76 -65 -79 -65 -3 0 -50 48 -105 107 l-99 107 -5 1589 -5 1588 -393
-278z"/>
<path d="M11057 13314 c-4 -4 -7 -17 -7 -29 0 -37 -59 -141 -100 -179 -63 -57
-116 -79 -200 -84 -129 -8 -254 36 -371 131 -34 27 -65 45 -69 40 -4 -4 -130
-150 -280 -323 -150 -173 -285 -327 -299 -343 -22 -24 -23 -29 -10 -42 14 -14
25 -5 103 85 l87 100 72 -56 c125 -98 244 -147 387 -162 l75 -7 3 -850 c1
-537 -1 -846 -7 -840 -6 6 -271 489 -591 1075 -320 586 -602 1095 -627 1133
-142 211 -382 317 -603 266 -183 -42 -361 -227 -404 -420 -18 -79 -28 -259
-18 -319 l7 -45 23 70 c60 183 162 245 297 181 60 -28 98 -67 159 -161 l46
-69 0 -312 0 -311 -72 -7 c-317 -31 -494 -166 -531 -407 -26 -167 62 -378 191
-460 38 -24 155 -69 179 -69 3 0 -11 18 -31 41 -44 48 -56 76 -56 133 0 90 83
155 208 164 42 3 77 0 90 -7 l22 -12 0 -443 0 -443 -87 -6 c-339 -23 -571
-174 -673 -439 -89 -231 -50 -453 110 -622 110 -115 233 -176 388 -191 39 -4
97 -4 129 0 l58 7 -72 18 c-90 23 -143 51 -200 103 -117 108 -125 259 -19 384
96 113 304 112 477 -3 36 -24 85 -64 107 -88 l41 -45 306 341 c168 187 304
346 302 352 -9 27 -37 8 -110 -74 l-77 -88 -53 51 c-141 137 -338 244 -522
281 l-60 12 -3 1034 c-1 569 2 1030 6 1025 5 -6 361 -658 792 -1450 430 -792
792 -1450 803 -1463 17 -19 30 -22 67 -20 l45 3 5 1495 5 1495 30 3 c66 7 154
35 241 77 77 37 103 56 163 121 119 128 181 279 181 444 0 106 -33 244 -53
224z"/>
<path d="M3745 12999 c-198 -154 -364 -284 -368 -288 -4 -4 14 -21 41 -38 31
-19 55 -44 68 -69 18 -38 19 -75 22 -1290 l2 -1251 -160 -120 c-138 -104 -158
-122 -147 -136 11 -15 20 -10 84 38 40 30 75 55 79 55 6 0 213 -192 366 -339
l57 -54 335 269 c256 205 332 272 324 281 -6 7 -13 13 -17 13 -3 0 -40 -27
-81 -60 l-75 -60 -82 82 -83 83 0 681 0 682 94 81 c52 45 97 81 100 81 3 0 69
-79 146 -175 l141 -176 -4 -807 c-4 -835 -5 -862 -48 -1030 -31 -125 -72 -196
-171 -298 -95 -98 -151 -134 -262 -170 -68 -21 -70 -23 -41 -31 17 -4 100 -8
185 -7 138 1 165 4 245 28 334 100 547 311 639 628 42 146 48 256 55 1098 l6
794 65 51 c142 109 135 102 121 119 -11 13 -26 6 -114 -61 l-100 -76 -36 41
c-156 181 -418 471 -426 471 -5 0 -140 -112 -300 -251 l-290 -251 -5 871 -5
871 -360 -280z"/>
<path d="M18680 12914 l-315 -256 -3 242 c-2 223 -4 241 -20 238 -16 -3 -17
-104 -20 -1785 l-2 -1781 -47 14 c-40 12 -179 40 -295 59 l-38 6 0 1524 c0
1067 -3 1540 -11 1577 -35 171 -162 313 -327 368 -231 76 -448 24 -622 -150
-114 -114 -181 -260 -179 -391 l0 -54 13 40 c37 117 109 207 180 226 136 37
249 -58 276 -231 5 -36 10 -255 10 -497 l0 -432 -47 -6 c-168 -22 -290 -73
-374 -155 -69 -68 -107 -127 -131 -203 -43 -138 -2 -317 98 -427 47 -52 144
-100 202 -100 l45 0 -33 23 c-76 51 -97 122 -58 197 34 65 97 95 201 95 58 0
80 -4 87 -15 6 -9 10 -292 10 -720 l0 -705 -46 -19 c-72 -29 -194 -113 -254
-175 -61 -63 -115 -156 -136 -235 -18 -67 -17 -215 1 -294 45 -192 171 -361
318 -430 111 -52 193 -67 372 -67 191 1 287 14 675 96 549 115 719 131 802 76
54 -37 73 -81 73 -167 -1 -92 -23 -141 -102 -216 -59 -57 -58 -58 57 -22 180
56 332 173 395 302 46 95 65 173 65 272 0 193 -94 337 -294 449 -101 56 -168
70 -346 69 -180 -2 -308 -19 -733 -100 -498 -95 -695 -114 -813 -79 -186 55
-234 297 -88 437 164 156 590 157 1154 2 312 -85 375 -97 535 -98 154 -1 209
10 318 65 115 58 180 144 224 294 16 56 18 161 21 1500 l3 1440 114 100 c101
87 113 101 101 114 -13 12 -28 3 -121 -78 -58 -51 -109 -91 -114 -89 -5 2
-110 94 -234 206 -125 111 -227 202 -229 202 -2 0 -145 -115 -318 -256z m-12
-334 l142 -125 0 -442 0 -441 -32 -28 c-118 -99 -264 -97 -381 6 l-37 32 0
508 0 509 73 59 c39 33 77 57 83 53 6 -3 74 -62 152 -131z m-252 -1107 c78
-59 202 -70 294 -27 30 14 65 35 78 46 l22 21 0 -207 0 -207 -30 21 c-120 86
-268 84 -385 -6 l-35 -26 0 211 c0 167 3 211 13 205 6 -4 26 -18 43 -31z m266
-359 c25 -8 64 -31 87 -51 l42 -35 -3 -612 c-3 -608 -3 -611 -25 -659 -31 -66
-114 -151 -172 -176 -59 -25 -143 -36 -205 -27 l-46 7 0 728 0 727 33 31 c28
28 85 61 127 76 31 11 118 6 162 -9z"/>
<path d="M30097 12729 c-137 -126 -215 -205 -210 -212 18 -31 346 -388 353
-385 5 2 106 92 225 201 l216 198 -32 37 c-129 148 -323 362 -328 362 -4 0
-105 -90 -224 -201z"/>
<path d="M13055 12509 c-143 -19 -237 -69 -355 -188 -124 -125 -170 -223 -170
-363 0 -174 36 -247 205 -413 73 -71 144 -150 158 -175 55 -96 57 -119 57
-810 l0 -635 -110 -80 c-61 -43 -110 -85 -110 -92 0 -31 29 -19 130 56 l109
80 250 -210 c138 -115 253 -209 257 -209 4 0 127 97 275 215 148 118 272 215
275 215 4 0 130 -99 281 -219 l274 -220 152 95 c84 52 328 203 542 337 l390
242 3 636 2 636 191 169 c105 93 201 177 212 186 20 15 20 19 7 33 -14 13 -25
7 -105 -65 -50 -44 -94 -80 -98 -80 -5 0 -112 86 -238 191 -126 105 -233 189
-238 187 -5 -2 -118 -104 -252 -227 -134 -124 -246 -226 -247 -227 -2 -2 41
-46 97 -100 l101 -96 0 -773 0 -773 -36 -21 c-19 -12 -40 -21 -45 -21 -5 0
-104 79 -219 175 l-210 176 0 645 0 646 85 91 c47 51 85 95 85 98 0 11 -451
410 -459 407 -4 -2 -119 -102 -254 -223 l-247 -220 100 -100 100 -100 0 -726
0 -725 -50 -38 -50 -38 -152 123 c-84 67 -165 134 -180 147 l-28 26 0 690 c0
745 -1 749 -53 839 -38 63 -118 135 -252 227 -206 140 -278 230 -279 346 0 67
40 148 105 209 28 26 49 48 47 49 -2 1 -25 -1 -53 -5z"/>
<path d="M37988 12094 c-13 -143 -103 -221 -266 -232 -68 -4 -77 -2 -145 31
-40 20 -99 61 -132 91 -33 31 -64 55 -70 52 -5 -2 -95 -60 -200 -128 -237
-155 -357 -228 -557 -336 l-158 -85 1 -326 0 -326 165 -150 c91 -82 174 -160
186 -172 l21 -22 -112 -117 c-306 -318 -386 -484 -340 -706 38 -180 192 -335
364 -367 66 -12 75 -4 25 23 -168 90 -200 236 -71 323 114 77 248 41 409 -111
39 -37 57 -48 67 -41 302 211 482 326 722 462 l173 98 -1 430 0 430 -180 145
c-99 80 -189 152 -200 160 -19 15 -18 18 52 105 205 255 309 487 296 666 -3
42 -13 95 -24 120 l-20 44 -5 -61z m-837 -514 c216 -213 456 -221 678 -23 l64
57 -24 -42 c-43 -75 -153 -219 -256 -334 -105 -117 -343 -341 -368 -346 -8 -2
-62 39 -120 90 l-105 93 0 335 0 335 36 -54 c20 -29 63 -79 95 -111z m253
-825 l115 -100 0 -420 1 -420 -48 84 c-185 329 -531 439 -805 257 -30 -20 -85
-68 -121 -107 -36 -38 -66 -66 -66 -61 0 12 65 119 112 182 44 60 677 692 689
688 4 -2 59 -48 123 -103z"/>
<path d="M24868 11525 c-197 -289 -359 -529 -360 -533 -2 -5 206 -344 460
-755 416 -669 466 -745 481 -734 49 35 671 590 671 598 0 5 -7 12 -15 15 -9 4
-48 -24 -106 -76 -50 -44 -95 -80 -100 -78 -5 2 -234 345 -508 763 -364 554
-497 764 -491 775 32 57 30 57 121 2 126 -77 221 -106 344 -106 80 1 112 5
157 23 184 72 324 275 382 556 8 38 13 72 11 74 -2 2 -26 -16 -52 -39 -26 -24
-82 -59 -123 -79 -70 -34 -81 -36 -170 -36 -85 0 -102 4 -160 31 -36 17 -91
52 -122 77 -32 26 -59 47 -60 47 -2 0 -164 -236 -360 -525z"/>
<path d="M20715 11885 c-137 -80 -363 -202 -501 -272 l-250 -126 1 -716 c0
-394 -3 -723 -7 -732 -4 -9 -43 -47 -87 -85 -70 -59 -79 -71 -67 -83 17 -16
23 -12 123 75 l58 51 308 -262 308 -262 237 142 c214 129 690 396 785 441 l37
18 0 677 0 677 90 85 c79 73 89 86 75 97 -17 14 -21 11 -137 -99 l-56 -54
-328 287 c-180 157 -330 286 -333 286 -3 0 -118 -66 -256 -145z m139 -430
l215 -200 0 -729 1 -728 -37 33 c-21 18 -138 124 -260 236 l-223 204 0 730 0
731 45 -38 c24 -22 141 -129 259 -239z"/>
<path d="M6689 11992 c-197 -125 -631 -378 -796 -467 l-203 -107 0 -684 0
-683 -95 -77 c-52 -42 -95 -79 -95 -83 0 -4 5 -12 12 -19 8 -8 30 4 88 52 42
35 86 69 97 76 19 12 43 -7 313 -253 161 -147 295 -267 299 -267 3 0 229 178
501 396 272 218 504 402 515 410 17 12 18 16 4 29 -14 14 -45 -8 -300 -210
l-284 -225 -50 48 c-27 27 -132 126 -232 221 l-183 173 0 83 0 84 468 347
c257 191 466 352 464 358 -5 19 -467 826 -473 826 -3 0 -25 -13 -50 -28z
m-164 -707 c124 -213 223 -391 220 -395 -7 -11 -452 -340 -459 -340 -4 0 -6
260 -6 578 1 373 4 571 10 561 5 -9 111 -191 235 -404z"/>
<path d="M11979 11992 c-201 -128 -631 -379 -796 -467 l-203 -107 0 -683 0
-684 -95 -77 c-52 -43 -95 -80 -95 -84 0 -3 5 -11 12 -18 8 -8 30 4 88 52 42
35 86 69 97 76 19 12 42 -6 313 -253 161 -147 295 -267 299 -267 3 0 224 175
491 388 267 213 499 397 515 410 25 20 27 24 14 38 -13 13 -48 -12 -299 -211
l-285 -225 -55 53 c-30 29 -135 129 -232 221 l-178 168 0 84 0 83 468 346
c257 191 467 350 467 354 0 11 -469 831 -476 831 -3 0 -25 -13 -50 -28z m-170
-695 c127 -219 231 -401 230 -405 0 -7 -442 -334 -460 -340 -5 -2 -9 215 -9
574 0 317 2 575 4 573 2 -2 107 -183 235 -402z"/>
<path d="M22204 11759 c-371 -335 -340 -305 -324 -323 11 -14 23 -7 96 60 46
42 88 74 93 72 6 -1 56 -64 111 -138 l102 -135 -6 -625 -6 -625 -43 -40 c-23
-22 -83 -77 -132 -122 -80 -73 -88 -84 -75 -97 14 -14 24 -7 102 65 l88 81 23
-19 c13 -10 122 -109 243 -219 120 -111 224 -202 229 -203 15 -1 645 531 645
545 0 32 -27 19 -121 -60 -99 -83 -102 -85 -123 -68 -12 9 -68 58 -124 107
l-102 90 0 724 0 723 69 -65 c42 -39 97 -79 138 -99 63 -30 76 -33 163 -33 88
0 101 3 165 34 184 91 315 317 315 545 l0 78 -46 -41 c-25 -22 -65 -49 -88
-61 -85 -40 -216 -17 -311 55 l-44 34 -177 -179 c-97 -98 -183 -188 -191 -200
-8 -11 -18 -20 -22 -20 -5 0 -86 95 -181 210 -95 116 -174 210 -175 210 -1 0
-132 -117 -291 -261z"/>
<path d="M33206 11779 c-165 -131 -302 -239 -307 -239 -4 0 -100 102 -214 228
-114 125 -210 228 -214 229 -3 2 -136 -101 -296 -227 -159 -126 -293 -229
-296 -227 -3 1 -102 105 -219 230 l-213 228 -26 -24 c-14 -13 -155 -137 -313
-276 -159 -139 -288 -254 -288 -255 0 -2 6 -9 14 -15 11 -9 33 5 106 69 51 44
96 80 100 80 4 0 71 -73 149 -162 l141 -161 0 -563 0 -564 -70 -67 -70 -68
220 -250 c120 -137 223 -251 227 -252 4 -2 110 99 235 224 l228 228 -95 102
-95 101 0 680 0 680 48 39 c26 22 52 43 59 46 11 7 311 -336 323 -368 3 -8 5
-264 4 -570 l0 -556 -58 -58 c-40 -41 -56 -63 -50 -73 6 -10 346 -398 401
-458 11 -12 27 0 119 90 58 58 159 162 225 232 l120 127 -79 83 -80 83 -7 690
-7 690 61 48 c33 26 62 47 65 47 2 0 79 -83 170 -184 l166 -185 0 -557 0 -558
-56 -57 -57 -57 233 -256 c229 -251 234 -256 254 -238 11 9 151 138 311 286
159 149 291 271 293 272 5 3 -10 34 -18 34 -4 0 -40 -30 -79 -66 -39 -36 -75
-64 -79 -62 -5 1 -59 59 -121 128 l-111 125 0 640 1 640 105 79 c58 44 107 83
110 88 3 4 1 15 -4 23 -7 13 -28 1 -121 -71 l-113 -87 -23 24 c-12 13 -109
122 -214 242 -106 119 -193 217 -194 216 -1 0 -137 -108 -301 -240z"/>
<path d="M35400 11859 c-281 -171 -446 -265 -652 -373 l-128 -67 0 -684 0
-684 -95 -77 c-52 -42 -95 -79 -95 -83 0 -4 5 -12 11 -18 9 -9 33 6 97 59 47
38 92 72 98 75 7 3 144 -115 304 -262 161 -146 296 -265 300 -263 12 4 1018
807 1025 817 2 5 -1 14 -9 20 -11 9 -73 -36 -297 -213 l-283 -224 -67 61 c-37
34 -142 132 -232 217 l-165 155 -1 87 -1 88 206 152 c113 84 324 241 469 349
l264 195 -237 417 c-130 229 -239 416 -242 417 -3 0 -124 -72 -270 -161z m263
-980 c-24 -22 -441 -329 -448 -329 -3 0 -5 260 -5 577 l0 577 235 -404 c224
-384 235 -405 218 -421z"/>
<path d="M29838 11747 c-226 -199 -294 -265 -286 -274 6 -7 13 -13 17 -13 3 0
40 29 81 65 41 36 78 65 82 65 3 0 63 -68 132 -151 l126 -151 0 -643 0 -643
-87 -78 c-49 -43 -90 -80 -92 -81 -3 -2 2 -10 10 -18 13 -14 26 -6 109 65 74
63 97 78 106 68 6 -7 93 -110 194 -228 101 -118 189 -221 196 -229 10 -11 63
33 308 254 163 146 296 270 296 273 0 4 -4 13 -8 20 -6 9 -32 -8 -93 -62 -46
-42 -87 -76 -91 -76 -4 0 -61 62 -127 138 l-120 137 -1 635 0 635 101 89 c93
81 109 104 82 113 -6 2 -52 -32 -103 -76 -51 -45 -96 -78 -101 -76 -4 3 -95
108 -201 233 -106 124 -202 237 -213 249 l-20 22 -297 -262z"/>
</g>
</svg>
